<svg width="1122" height="184" xmlns="http://www.w3.org/2000/svg" xmlns:xlink="http://www.w3.org/1999/xlink" xml:space="preserve" overflow="hidden"><defs><clipPath id="clip0"><rect x="76" y="37" width="1122" height="184"/></clipPath><clipPath id="clip1"><rect x="76" y="37" width="1122" height="184"/></clipPath><clipPath id="clip2"><rect x="77" y="38" width="1121" height="183"/></clipPath><clipPath id="clip3"><rect x="77" y="38" width="1121" height="184"/></clipPath><clipPath id="clip4"><rect x="77" y="38" width="1121" height="184"/></clipPath></defs><g clip-path="url(#clip0)" transform="translate(-76 -37)"><g clip-path="url(#clip1)"><g clip-path="url(#clip2)"><g clip-path="url(#clip3)"><g clip-path="url(#clip4)"><path d="M689.123 132.487C682.67 164.354 657.973 166.107 653.113 166.107 642.048 167.325 632.092 159.342 630.873 148.277 630.739 147.055 630.716 145.822 630.806 144.596 630.901 140.747 631.3 136.911 632.002 133.124L647.298 56.8825 629.372 56.8825 613.439 134.718 613.439 135.833C612.66 139.529 612.233 143.29 612.164 147.066 610.911 165.151 624.555 180.827 642.639 182.08 643.924 182.169 645.214 182.182 646.501 182.12 660.099 182.715 673.27 177.295 682.511 167.302L680.121 180.208 697.886 180.208 722.504 56.8825 704.26 56.8825Z" fill="#FFFFFF" fill-rule="nonzero" fill-opacity="1" transform="matrix(1 0 0 1.00078 77 38.3695)"/><path d="M812.607 55.1298C799.375 54.8265 786.765 60.7202 778.51 71.0633L780.741 56.8825 763.214 56.8825 738.596 180.367 756.84 180.367 771.977 104.444C774.404 86.2567 789.216 72.2423 807.509 70.8243 814.32 70.7876 820.718 74.0914 824.637 79.6674L839.296 66.5223C832.596 58.8641 822.773 54.6714 812.607 55.1298" fill="#FFFFFF" fill-rule="nonzero" fill-opacity="1" transform="matrix(1 0 0 1.00078 77 38.3695)"/><path d="M516.723 56.6435 513.616 72.338 513.616 72.6567 575.199 72.6567 493.141 165.469 490.034 180.686 577.509 180.686 580.616 164.593 515.209 164.593 597.505 71.86 597.585 71.7803 600.613 56.6435 516.723 56.6435Z" fill="#FFFFFF" fill-rule="nonzero" fill-opacity="1" transform="matrix(1 0 0 1.00078 77 38.3695)"/><path d="M866.622 56.6435 841.766 180.367 841.686 180.686 859.771 180.686 884.388 56.6435 866.622 56.6435Z" fill="#FFFFFF" fill-rule="nonzero" fill-opacity="1" transform="matrix(1 0 0 1.00078 77 38.3695)"/><path d="M1086.66 55.1298C1073.53 54.5683 1060.77 59.6404 1051.61 69.0716L1065.31 0 1047.23 0 1010.9 180.686 1028.98 180.686 1044.04 104.763C1050.49 72.8957 1075.51 71.143 1080.37 71.143 1091.35 69.9586 1101.21 77.8996 1102.4 88.8793 1102.53 90.1596 1102.55 91.4502 1102.44 92.7329 1102.34 96.5864 1101.91 100.424 1101.16 104.205L1085.87 180.686 1103.95 180.686 1119.88 102.532C1120.73 98.4705 1121.16 94.3326 1121.16 90.1835 1122.41 72.0992 1108.77 56.4231 1090.69 55.1698 1089.4 55.0807 1088.11 55.0674 1086.82 55.1298" fill="#FFFFFF" fill-rule="nonzero" fill-opacity="1" transform="matrix(1 0 0 1.00078 77 38.3695)"/><path d="M966.923 55.1298C934.1 55.1298 911.156 78.2334 903.827 118.864 902.632 125.167 902.018 131.568 901.994 137.984 901.994 165.469 918.724 182.518 945.572 182.518 961.1 182.588 975.997 176.349 986.84 165.23L986.84 165.23 976.483 152.563C969.25 161.518 958.359 166.73 946.847 166.744 934.021 166.744 920.318 158.777 920.318 137.665 920.366 131.454 921.027 125.262 922.309 119.182 924.253 106.123 929.766 93.8554 938.243 83.7304 945.238 76.1352 955.085 71.8038 965.41 71.7803 975.344 71.3787 984.633 76.7044 989.31 85.4831L1002.53 74.25C994.751 62.167 981.12 55.1521 966.764 55.8469" fill="#FFFFFF" fill-rule="nonzero" fill-opacity="1" transform="matrix(1 0 0 1.00078 77 38.3695)"/><path d="M877.855 0 873.314 22.5459 891.399 22.5459 895.94 0 877.855 0Z" fill="#FFFFFF" fill-rule="nonzero" fill-opacity="1" transform="matrix(1 0 0 1.00078 77 38.3695)"/><path d="M702.268 0 697.647 22.5459 715.812 22.5459 720.273 0 702.268 0Z" fill="#FFFFFF" fill-rule="nonzero" fill-opacity="1" transform="matrix(1 0 0 1.00078 77 38.3695)"/><path d="M654.069 0 649.528 22.5459 667.613 22.5459 672.074 0 654.069 0Z" fill="#FFFFFF" fill-rule="nonzero" fill-opacity="1" transform="matrix(1 0 0 1.00078 77 38.3695)"/><path d="M422.397 0 408.136 70.0276 367.506 70.0276 381.766 0 36.2487 0 0 180.686 137.745 180.686 146.747 135.514 65.4069 135.514 70.3463 110.658 151.687 110.658 159.892 70.0276 78.5521 70.0276 83.4914 45.1714 212.393 45.1714 185.147 180.686 241.631 180.686 268.798 45.1714 316.28 45.1714 289.033 180.686 345.518 180.686 359.459 110.658 400.09 110.658 386.148 180.686 442.632 180.686 478.881 0 422.397 0Z" fill="#FFFFFF" fill-rule="nonzero" fill-opacity="1" transform="matrix(1 0 0 1.00078 77 38.3695)"/></g></g></g></g></g></svg>